<?xml version="1.0" encoding="utf-8"?>
<!-- Generator: Adobe Illustrator 21.0.0, SVG Export Plug-In . SVG Version: 6.00 Build 0)  -->
<svg version="1.1" id="Layer_1" xmlns="http://www.w3.org/2000/svg" xmlns:xlink="http://www.w3.org/1999/xlink" x="0px" y="0px"
	 viewBox="0 0 1200 1200" style="enable-background:new 0 0 1200 1200;" xml:space="preserve">
<style type="text/css">
	.st0{fill:none;stroke:#0D0504;stroke-width:10;stroke-miterlimit:10;}
	.st1{fill:#592527;}
	.st2{fill:#0D0504;}
	.st3{fill:#FFFFFF;}
	.st4{fill:#231F20;}
	.st5{fill:#FFFFFF;stroke:#0D0504;stroke-miterlimit:10;}
	.st6{fill:#231F20;stroke:#0D0504;stroke-miterlimit:10;}
	.st7{fill:#0D0504;stroke:#0D0504;stroke-miterlimit:10;}
	.st8{fill:none;}
</style>
<g>
	<path class="st0" d="M893.9,574.8C866.5,437.6,745.3,334.2,600,334.2c-145.3,0-266.5,103.4-293.9,240.7
		c-3.8,19.1-5.8,38.9-5.8,59.1c0,32.9,5.3,64.5,15.1,94.1c39.4,119.5,152,205.7,284.7,205.7c132.7,0,245.3-86.2,284.7-205.7
		c9.8-29.6,15.1-61.2,15.1-94.1C899.8,613.7,897.8,593.9,893.9,574.8z M656.6,435.1h65v57.6h96V569h-161V435.1z M388,436.6h59.2
		l1.6-1.6l40.9,40.9v-39.3h61.6v138.2h-49.9l-11.7-11.7l-40-40v51.7H388V436.6z"/>
	<path class="st1" d="M489.6,574.8h-40H388h-78h-4c-3.8,19.1-5.8,38.9-5.8,59.1c0,32.9,5.3,64.5,15.1,94.1
		c39.4,119.5,152,205.7,284.7,205.7c132.7,0,245.3-86.2,284.7-205.7c9.8-29.6,15.1-61.2,15.1-94.1c0-16.9-1.4-33.4-4.1-49.5
		c-0.2-1-0.3-2-0.5-3.1c0,0,0-0.1,0-0.2c-0.4-2.1-0.8-4.3-1.2-6.4h-0.2H599.3h-48.1h-46.8h-3.1H489.6z"/>
	<path class="st2" d="M884.7,728c-39.4,119.5-152,205.7-284.7,205.7c-132.7,0-245.3-86.2-284.7-205.7H884.7z"/>
	<rect x="336" y="723.1" class="st3" width="528.6" height="9.7"/>
	<rect x="594.5" y="575.8" class="st3" width="9.7" height="194.2"/>
	<rect x="543.4" y="770.6" class="st3" width="113.2" height="67.2"/>
	<rect x="688" y="770.6" class="st3" width="67.2" height="67.2"/>
	<rect x="442.2" y="770.6" class="st3" width="67.2" height="67.2"/>
	<g>
		<path class="st3" d="M894.8,584.5H307c27.4-140.7,148.6-246.7,293.9-246.7C746.2,337.7,867.4,443.7,894.8,584.5z"/>
		<path class="st4" d="M895.4,584.9H306.4l0.1-0.6c13.4-68.8,50-131.4,102.9-176.4c26.4-22.4,55.9-39.9,87.9-51.9
			c33.1-12.5,68-18.8,103.6-18.8c35.6,0,70.4,6.3,103.5,18.8c32,12.1,61.6,29.5,87.9,51.9c53,45,89.5,107.7,102.9,176.4L895.4,584.9
			z M307.5,584h586.7c-28.1-142.4-151.3-245.8-293.3-245.8C458.9,338.2,335.6,441.5,307.5,584z"/>
	</g>
	<g>
		<polygon class="st5" points="551.3,436.6 551.3,574.8 501.3,574.8 489.6,563.1 449.7,523.2 449.7,574.8 388,574.8 388,436.6 
			447.2,436.6 448.7,435.1 489.6,476 489.6,436.6 		"/>
		<path class="st6" d="M554.6,578.2h-54.7l-46.9-46.9v46.9h-68.4v-145h61.1l3-3l37.5,37.5v-34.5h68.4V578.2z M502.7,571.4h45.1V440
			H493v44.1l-44.3-44.3l-0.1,0.1h-57.2v131.4h54.8V515L502.7,571.4z"/>
	</g>
	<g>
		<polygon class="st3" points="504.4,574.8 502.9,576.4 501.3,574.8 		"/>
		<polygon class="st4" points="502.9,579.8 495.5,572.4 510.3,572.4 		"/>
	</g>
	
		<rect x="493" y="560.7" transform="matrix(0.7071 -0.7071 0.7071 0.7071 -257.2147 517.0021)" class="st4" width="4.9" height="16.6"/>
	
		<rect x="493" y="560.7" transform="matrix(0.7071 -0.7071 0.7071 0.7071 -257.2147 517.0021)" class="st4" width="4.9" height="16.6"/>
	<g>
		<g>
			<polygon class="st3" points="816.6,496.2 816.6,574.8 657.6,574.8 657.6,436.8 721.8,436.8 721.8,496.2 			"/>
			<path class="st2" d="M817.1,575.3h-160V436.3h65.2v59.4h94.7V575.3z M658.1,574.3h158v-77.7h-94.7v-59.4h-63.2V574.3z"/>
		</g>
		<g>
			<path class="st4" d="M820,578.2H654.2V433.4h71v59.4H820V578.2z M661,571.4h152.2v-71.9h-94.7v-59.4H661V571.4z"/>
			<path class="st2" d="M820.5,578.7H653.7V432.9h72v59.4h94.7V578.7z M654.7,577.7h164.8v-84.5h-94.7v-59.4h-70V577.7z
				 M813.7,571.9H660.5V439.7h58.4v59.4h94.7V571.9z M661.5,570.9h151.2v-70.9h-94.7v-59.4h-56.4V570.9z"/>
		</g>
	</g>
	<path class="st7" d="M646.7,578.2h-89.6V433.4h89.6V578.2z M563.9,571.4h76V440.2h-76V571.4z"/>
	
		<rect x="596" y="417.5" transform="matrix(0.6287 -0.7776 0.7776 0.6287 -141.9616 641.4661)" class="st2" width="9.7" height="103.8"/>
	
		<rect x="597.6" y="486.6" transform="matrix(0.634 -0.7733 0.7733 0.634 -196.5594 663.3361)" class="st7" width="9.7" height="105.5"/>
	
		<rect x="549.1" y="537.4" transform="matrix(0.7816 -0.6237 0.6237 0.7816 -206.9566 493.4296)" class="st2" width="104.3" height="9.7"/>
	
		<rect x="549" y="466.5" transform="matrix(0.7629 -0.6465 0.6465 0.7629 -161.8763 501.2602)" class="st2" width="106.9" height="9.7"/>
	<rect x="561.7" y="501" class="st2" width="83.2" height="9.7"/>
</g>
<rect class="st8" width="1200" height="1200"/>
</svg>
